<?xml version="1.0" encoding="utf-8"?>
<!-- Generator: Adobe Illustrator 19.0.0, SVG Export Plug-In . SVG Version: 6.00 Build 0)  -->
<svg version="1.1" id="Layer_1" xmlns="http://www.w3.org/2000/svg" xmlns:xlink="http://www.w3.org/1999/xlink" x="0px" y="0px"
	 viewBox="0 0 296 85" style="enable-background:new 0 0 296 85;" xml:space="preserve">
<style type="text/css">
	.st0{fill:#204788;}
	.st1{fill:#6D6E70;}
	.st2{fill-rule:evenodd;clip-rule:evenodd;fill:#EC1C24;}
	.st3{fill-rule:evenodd;clip-rule:evenodd;fill:#FFFFFF;}
	.st4{fill:#231F20;}
</style>
<g id="XMLID_2_">
	<g id="XMLID_8_">
		<g id="XMLID_149_">
			<g id="XMLID_150_">
				<path id="XMLID_157_" class="st0" d="M22.5,3.1h10.1L55,54.4h-7.6c-0.8,0-1.5-0.1-2.3-0.3c-0.7-0.2-1.4-0.5-2-0.9
					c-0.6-0.4-1.2-0.9-1.7-1.4c-0.5-0.6-0.9-1.2-1.2-1.9l-2.5-5.7H17.3l-2.4,5.7c-0.3,0.6-0.7,1.2-1.2,1.8c-0.5,0.6-1.1,1-1.7,1.5
					c-0.6,0.4-1.3,0.7-2.1,1c-0.7,0.2-1.5,0.3-2.2,0.3H0.1L22.5,3.1z M22,33.5h11l-4.5-10.7c-0.2-0.5-0.4-1-0.5-1.4
					c-0.1-0.4-0.2-0.8-0.3-1.1c-0.1-0.4-0.2-0.7-0.2-1.1c-0.1,0.3-0.1,0.7-0.2,1.1c-0.1,0.3-0.2,0.7-0.3,1.1
					c-0.1,0.4-0.3,0.9-0.5,1.4L22,33.5z"/>
				<path id="XMLID_155_" class="st0" d="M95.5,7.6c0.3-0.7,0.7-1.4,1.2-1.9c0.5-0.6,1.1-1,1.7-1.4c0.6-0.4,1.3-0.7,2-0.9
					c0.7-0.2,1.5-0.3,2.3-0.3h7.6L87.9,54.4H77.8L55.4,3.1H63c0.7,0,1.5,0.1,2.2,0.3c0.7,0.2,1.4,0.6,2.1,1c0.6,0.4,1.2,0.9,1.7,1.5
					c0.5,0.6,0.9,1.1,1.2,1.8l11.7,26.8c0.2,0.4,0.3,0.8,0.4,1.3c0.1,0.5,0.2,0.9,0.3,1.3c0.1,0.5,0.2,1,0.3,1.4
					c0-0.5,0.1-0.9,0.2-1.4c0.1-0.4,0.2-0.8,0.3-1.3c0.1-0.5,0.3-0.9,0.5-1.3L95.5,7.6z"/>
				<path id="XMLID_153_" class="st0" d="M136.3,54.4h-11.7V3.1h11.7V54.4z"/>
				<path id="XMLID_151_" class="st0" d="M277.2,54.4h-11.7V20.2l-12.9,34.2h-10.1l-13.2-34.2v34.2h-11.7V3.1h12.8
					c0.8,0,1.6,0.1,2.4,0.3c0.8,0.2,1.5,0.5,2.1,0.9c0.6,0.4,1.2,0.9,1.7,1.4c0.5,0.6,0.8,1.2,1.1,1.8l9,25.6
					c0.1,0.4,0.2,0.8,0.3,1.3c0.1,0.5,0.2,0.9,0.3,1.4c0.1,0.5,0.2,1,0.3,1.6c0-0.5,0.1-1,0.2-1.5c0.1-0.4,0.2-0.9,0.3-1.4
					c0.1-0.5,0.2-0.9,0.4-1.3l8.9-25.6c0.2-0.7,0.6-1.4,1.1-1.9c0.5-0.6,1.1-1,1.7-1.4c0.6-0.4,1.4-0.7,2.1-0.9
					c0.8-0.2,1.5-0.3,2.3-0.3h12.7V54.4z"/>
			</g>
		</g>
		<g id="XMLID_22_">
			<g id="XMLID_539_">
				<g id="XMLID_540_">
					<path id="XMLID_600_" class="st1" d="M1.9,81.3H0.1V68.6h1.8V81.3z"/>
					<path id="XMLID_598_" class="st1" d="M7.7,72c0,0.1,0.1,0.1,0.1,0.2c0,0.1,0.1,0.1,0.1,0.2c0,0.1,0,0.2,0,0.3v0.4
						c0.1-0.2,0.3-0.4,0.4-0.5c0.2-0.2,0.4-0.3,0.6-0.4c0.2-0.1,0.5-0.2,0.8-0.2c0.3-0.1,0.6-0.1,0.8-0.1c0.5,0,1,0.1,1.4,0.3
						c0.4,0.2,0.8,0.5,1.1,0.8c0.3,0.4,0.5,0.8,0.7,1.3c0.2,0.5,0.3,1.1,0.3,1.8v5.3h-1.8V76c0-0.8-0.1-1.4-0.4-1.8
						c-0.3-0.4-0.7-0.7-1.3-0.7c-0.4,0-0.7,0-1,0.1c-0.3,0.1-0.6,0.2-0.9,0.3c-0.2,0.1-0.4,0.3-0.6,0.5C8.1,74.6,8,74.9,8,75.1v6.3
						H6.2V72H7.7z"/>
					<path id="XMLID_595_" class="st1" d="M24.4,81.3c0-0.1-0.1-0.1-0.1-0.2c0-0.1-0.1-0.1-0.1-0.2c0-0.1,0-0.2,0-0.3v-0.1
						c-0.2,0.2-0.4,0.3-0.6,0.5c-0.2,0.1-0.4,0.2-0.6,0.3c-0.2,0.1-0.4,0.1-0.6,0.2c-0.2,0-0.4,0-0.6,0c-0.7,0-1.3-0.1-1.8-0.4
						c-0.6-0.3-1.1-0.6-1.5-1c-0.4-0.4-0.7-0.9-1-1.5c-0.2-0.6-0.4-1.2-0.4-1.9c0-0.7,0.1-1.3,0.4-1.9c0.2-0.6,0.6-1.1,1-1.5
						c0.4-0.4,0.9-0.8,1.5-1c0.6-0.3,1.2-0.4,1.8-0.4c0.2,0,0.4,0,0.6,0c0.2,0,0.4,0.1,0.6,0.2c0.2,0.1,0.4,0.2,0.6,0.3
						c0.2,0.1,0.4,0.3,0.6,0.5v-4.2h1.8v12.8H24.4z M21.7,73.6c-0.4,0-0.8,0.1-1.2,0.2c-0.4,0.2-0.7,0.4-0.9,0.7
						c-0.3,0.3-0.5,0.6-0.6,1c-0.1,0.4-0.2,0.8-0.2,1.2c0,0.4,0.1,0.8,0.2,1.2c0.1,0.4,0.3,0.7,0.6,1c0.3,0.3,0.6,0.5,0.9,0.7
						c0.4,0.2,0.7,0.3,1.2,0.3c0.5,0,0.9-0.1,1.3-0.3c0.4-0.2,0.8-0.4,1.1-0.7v-4.1c-0.3-0.3-0.7-0.6-1.1-0.7
						C22.6,73.7,22.1,73.6,21.7,73.6z"/>
					<path id="XMLID_592_" class="st1" d="M29.6,69.6c0-0.2,0-0.3,0.1-0.5c0.1-0.1,0.2-0.3,0.3-0.4c0.1-0.1,0.2-0.2,0.4-0.3
						c0.1-0.1,0.3-0.1,0.5-0.1c0.2,0,0.3,0,0.5,0.1c0.1,0.1,0.3,0.2,0.4,0.3c0.1,0.1,0.2,0.2,0.3,0.4c0.1,0.1,0.1,0.3,0.1,0.5
						c0,0.2,0,0.3-0.1,0.5c-0.1,0.1-0.2,0.3-0.3,0.4c-0.1,0.1-0.2,0.2-0.4,0.3c-0.1,0.1-0.3,0.1-0.5,0.1c-0.2,0-0.3,0-0.5-0.1
						c-0.1-0.1-0.3-0.1-0.4-0.3c-0.1-0.1-0.2-0.2-0.3-0.4C29.6,70,29.6,69.8,29.6,69.6z M31.6,72v9.4h-1.8V72H31.6z"/>
					<path id="XMLID_589_" class="st1" d="M35.8,73.4c0.1-0.1,0.1-0.2,0.2-0.3c0.1-0.1,0.2-0.2,0.3-0.3c0.1-0.1,0.2-0.2,0.4-0.3
						c0.4-0.2,0.7-0.4,1.2-0.5c0.4-0.1,0.9-0.2,1.4-0.2c0.5,0,1,0.1,1.3,0.2c0.4,0.1,0.7,0.3,1,0.5c0.3,0.2,0.5,0.5,0.7,0.8
						c0.2,0.3,0.3,0.6,0.4,1c0.1,0.4,0.2,0.7,0.2,1.1c0,0.4,0,0.8,0,1.2v4.7h-1.4c-0.1-0.1-0.1-0.2-0.2-0.3
						c-0.1-0.1-0.1-0.3-0.1-0.4v-0.2c-0.2,0.2-0.4,0.3-0.6,0.5c-0.2,0.1-0.5,0.3-0.7,0.3c-0.3,0.1-0.5,0.2-0.8,0.2
						c-0.3,0.1-0.5,0.1-0.7,0.1c-0.5,0-0.9-0.1-1.3-0.2c-0.4-0.1-0.7-0.3-1-0.6c-0.3-0.3-0.5-0.5-0.6-0.9c-0.2-0.4-0.2-0.7-0.2-1.2
						c0-0.5,0.1-0.9,0.3-1.3c0.2-0.4,0.4-0.7,0.8-1c0.4-0.3,0.8-0.5,1.3-0.6c0.5-0.1,1.2-0.2,1.9-0.2c0.2,0,0.4,0,0.6,0
						c0.2,0,0.4,0,0.5,0c0.1,0,0.3,0,0.4,0c0.1,0,0.2,0,0.2,0c0-0.4-0.1-0.8-0.2-1.1c-0.1-0.3-0.3-0.5-0.4-0.7
						c-0.2-0.2-0.4-0.3-0.6-0.3c-0.2-0.1-0.4-0.1-0.7-0.1c-0.3,0-0.5,0-0.7,0.1c-0.2,0.1-0.3,0.1-0.4,0.2c-0.1,0.1-0.3,0.1-0.4,0.2
						C37.5,74,37.4,74,37.2,74c-0.2,0-0.3,0-0.4-0.1c-0.1-0.1-0.3-0.1-0.4-0.2L35.8,73.4z M38.3,79.8c0.2,0,0.4,0,0.7-0.1
						c0.2,0,0.5-0.1,0.7-0.2c0.3-0.1,0.5-0.2,0.7-0.3c0.2-0.1,0.5-0.2,0.7-0.4v-1.6c0,0-0.1,0-0.2,0c-0.1,0-0.2,0-0.4,0
						c-0.2,0-0.3,0-0.5,0c-0.2,0-0.4,0-0.6,0c-0.4,0-0.7,0-1,0.1c-0.3,0.1-0.6,0.1-0.8,0.2c-0.2,0.1-0.4,0.2-0.6,0.4
						c-0.1,0.2-0.2,0.4-0.2,0.6c0,0.2,0,0.4,0.1,0.5c0.1,0.1,0.2,0.3,0.3,0.3c0.1,0.1,0.3,0.1,0.5,0.2
						C37.9,79.8,38.1,79.8,38.3,79.8z"/>
					<path id="XMLID_587_" class="st1" d="M63.6,81.3h-1.8v-5.5H55v5.5h-1.8V68.6H55V74h6.9v-5.5h1.8V81.3z"/>
					<path id="XMLID_584_" class="st1" d="M67,76.7c0-0.7,0.1-1.3,0.4-1.9c0.3-0.6,0.6-1.1,1-1.5c0.4-0.4,0.9-0.8,1.5-1
						c0.6-0.3,1.2-0.4,1.9-0.4c0.7,0,1.3,0.1,1.9,0.4c0.6,0.3,1.1,0.6,1.5,1c0.4,0.4,0.8,0.9,1,1.5c0.2,0.6,0.4,1.2,0.4,1.9
						c0,0.7-0.1,1.3-0.4,1.9c-0.3,0.6-0.6,1.1-1,1.5c-0.4,0.4-1,0.8-1.5,1c-0.6,0.3-1.2,0.4-1.9,0.4c-0.7,0-1.3-0.1-1.9-0.4
						c-0.6-0.3-1.1-0.6-1.5-1c-0.4-0.4-0.8-0.9-1-1.5C67.1,77.9,67,77.3,67,76.7z M68.7,76.7c0,0.4,0.1,0.8,0.2,1.2
						c0.2,0.4,0.4,0.7,0.7,1c0.3,0.3,0.6,0.5,1,0.7c0.4,0.2,0.8,0.2,1.2,0.2c0.4,0,0.8-0.1,1.2-0.2c0.4-0.2,0.7-0.4,1-0.7
						c0.3-0.3,0.5-0.6,0.7-1c0.2-0.4,0.2-0.8,0.2-1.2c0-0.4-0.1-0.8-0.2-1.2c-0.2-0.4-0.4-0.7-0.7-1c-0.3-0.3-0.6-0.5-1-0.7
						c-0.4-0.2-0.8-0.2-1.2-0.2c-0.4,0-0.8,0.1-1.2,0.2c-0.4,0.2-0.7,0.4-1,0.7c-0.3,0.3-0.5,0.6-0.7,1
						C68.8,75.8,68.7,76.2,68.7,76.7z"/>
					<path id="XMLID_582_" class="st1" d="M85.9,81.3c0-0.1-0.1-0.2-0.1-0.2c0-0.1-0.1-0.1-0.1-0.2c0-0.1,0-0.2,0-0.3v-0.4
						c-0.1,0.2-0.3,0.4-0.4,0.6c-0.2,0.2-0.4,0.3-0.6,0.4c-0.2,0.1-0.5,0.2-0.8,0.2c-0.3,0-0.6,0.1-0.8,0.1c-0.5,0-1-0.1-1.4-0.3
						c-0.4-0.2-0.8-0.5-1.1-0.8c-0.3-0.4-0.5-0.8-0.7-1.3c-0.2-0.5-0.3-1.1-0.3-1.7V72h1.8v5.3c0,0.8,0.1,1.4,0.4,1.8
						c0.3,0.4,0.7,0.7,1.3,0.7c0.4,0,0.7,0,1-0.1c0.3-0.1,0.6-0.2,0.8-0.4c0.2-0.1,0.4-0.3,0.6-0.5c0.1-0.2,0.2-0.4,0.2-0.6V72h1.8
						v9.4H85.9z"/>
					<path id="XMLID_580_" class="st1" d="M90.9,79.3c0.1-0.1,0.2-0.1,0.3-0.1c0.1,0,0.2-0.1,0.4-0.1c0.2,0,0.3,0,0.4,0.1
						c0.1,0.1,0.3,0.2,0.5,0.3c0.1,0.1,0.3,0.2,0.4,0.2c0.2,0,0.3,0.1,0.5,0.1c0.2,0,0.4,0,0.5-0.1c0.2-0.1,0.3-0.1,0.5-0.3
						c0.1-0.1,0.3-0.2,0.3-0.4c0.1-0.2,0.1-0.3,0.1-0.6c0-0.2,0-0.3-0.1-0.4c0-0.1-0.1-0.2-0.3-0.3c-0.1-0.1-0.3-0.2-0.5-0.3
						c-0.2-0.1-0.5-0.2-0.8-0.3c-0.3-0.1-0.6-0.2-1-0.4c-0.3-0.1-0.6-0.3-0.8-0.5c-0.3-0.2-0.4-0.5-0.6-0.8
						c-0.1-0.3-0.2-0.6-0.2-1.1c0-0.4,0.1-0.7,0.3-1c0.2-0.3,0.4-0.6,0.7-0.8c0.3-0.2,0.6-0.4,0.9-0.5c0.3-0.1,0.7-0.2,1.1-0.2
						c0.4,0,0.7,0.1,1,0.2c0.3,0.1,0.6,0.3,0.8,0.4c0.2,0.2,0.4,0.3,0.5,0.5c0.1,0.1,0.2,0.2,0.2,0.3l-0.4,0.4
						c-0.2,0.2-0.5,0.3-0.9,0.3c-0.1,0-0.2,0-0.4-0.1c-0.1,0-0.3-0.1-0.5-0.2c-0.1-0.1-0.2-0.1-0.4-0.1c-0.2,0-0.4,0-0.6,0.1
						c-0.1,0.1-0.3,0.1-0.4,0.2c-0.1,0.1-0.2,0.2-0.2,0.3c0,0.1-0.1,0.2-0.1,0.2c0,0.2,0.1,0.3,0.1,0.4c0.1,0.1,0.2,0.2,0.3,0.3
						c0.1,0.1,0.3,0.2,0.5,0.2c0.2,0.1,0.4,0.1,0.6,0.2c0.4,0.1,0.7,0.3,1,0.4c0.3,0.2,0.6,0.3,0.9,0.6c0.3,0.2,0.5,0.5,0.6,0.8
						c0.2,0.3,0.2,0.7,0.2,1.1c0,0.4-0.1,0.8-0.2,1.1c-0.2,0.4-0.4,0.7-0.7,1c-0.3,0.3-0.6,0.5-1,0.7c-0.4,0.2-0.8,0.2-1.3,0.2
						c-0.3,0-0.6,0-0.9-0.1c-0.3-0.1-0.6-0.2-0.9-0.4c-0.3-0.2-0.5-0.4-0.7-0.6c-0.2-0.2-0.4-0.5-0.6-0.8L90.9,79.3z"/>
					<path id="XMLID_577_" class="st1" d="M99.8,69.6c0-0.2,0-0.3,0.1-0.5c0.1-0.1,0.2-0.3,0.3-0.4c0.1-0.1,0.2-0.2,0.4-0.3
						c0.1-0.1,0.3-0.1,0.5-0.1c0.2,0,0.3,0,0.5,0.1c0.1,0.1,0.3,0.2,0.4,0.3c0.1,0.1,0.2,0.2,0.3,0.4c0.1,0.1,0.1,0.3,0.1,0.5
						c0,0.2,0,0.3-0.1,0.5c-0.1,0.1-0.1,0.3-0.3,0.4c-0.1,0.1-0.2,0.2-0.4,0.3c-0.1,0.1-0.3,0.1-0.5,0.1c-0.2,0-0.3,0-0.5-0.1
						c-0.1-0.1-0.3-0.1-0.4-0.3c-0.1-0.1-0.2-0.2-0.3-0.4C99.8,70,99.8,69.8,99.8,69.6z M101.9,72v9.4h-1.8V72H101.9z"/>
					<path id="XMLID_575_" class="st1" d="M107.3,72c0.1,0.1,0.1,0.1,0.1,0.2c0,0.1,0.1,0.1,0.1,0.2c0,0.1,0,0.2,0,0.3v0.4
						c0.1-0.2,0.3-0.4,0.4-0.5c0.2-0.2,0.4-0.3,0.6-0.4c0.2-0.1,0.5-0.2,0.8-0.2c0.3-0.1,0.6-0.1,0.8-0.1c0.5,0,1,0.1,1.4,0.3
						c0.4,0.2,0.8,0.5,1.1,0.8c0.3,0.4,0.5,0.8,0.7,1.3c0.2,0.5,0.3,1.1,0.3,1.8v5.3H112V76c0-0.8-0.2-1.4-0.4-1.8
						c-0.3-0.4-0.7-0.7-1.3-0.7c-0.4,0-0.7,0-1,0.1c-0.3,0.1-0.6,0.2-0.8,0.3c-0.2,0.1-0.4,0.3-0.6,0.5c-0.1,0.2-0.2,0.4-0.3,0.6
						v6.3h-1.8V72H107.3z"/>
					<path id="XMLID_572_" class="st1" d="M124.9,73.2c-0.1,0.2-0.2,0.4-0.4,0.6c-0.2,0.1-0.5,0.2-0.9,0.2c0.1,0.2,0.2,0.4,0.2,0.7
						c0.1,0.2,0.1,0.5,0.1,0.7c0,0.5-0.1,0.9-0.3,1.4c-0.2,0.4-0.4,0.8-0.8,1.1c-0.3,0.3-0.7,0.6-1.1,0.8c-0.4,0.2-0.9,0.3-1.4,0.3
						c-0.5,0-1.1-0.1-1.6-0.4c-0.2,0.2-0.4,0.3-0.4,0.4c-0.1,0.1-0.1,0.2-0.1,0.2c0,0,0,0.1,0,0.1l0,0c0,0.1,0.1,0.1,0.3,0.1
						c0.1,0,0.3,0.1,0.5,0.1c0.2,0,0.4,0,0.6,0.1c0.2,0,0.4,0,0.6,0c0.4,0,0.8,0,1.2,0.1c0.4,0,0.8,0.1,1.1,0.2
						c0.5,0.2,0.9,0.4,1.1,0.8c0.3,0.4,0.4,0.8,0.4,1.3c0,0.4-0.1,0.7-0.2,1c-0.1,0.3-0.4,0.6-0.6,0.8c-0.3,0.2-0.6,0.4-1,0.5
						c-0.4,0.1-0.9,0.2-1.4,0.2c-0.4,0-0.8,0-1.2-0.1c-0.4-0.1-0.8-0.2-1.2-0.2c-0.4-0.1-0.7-0.2-1.1-0.3c-0.3-0.1-0.7-0.3-1-0.4
						l0.2-0.6c0.1-0.2,0.2-0.4,0.4-0.5c0.2-0.1,0.5-0.2,0.7-0.2c0.2,0,0.3,0,0.5,0.1c0.2,0,0.3,0.1,0.4,0.1c0.1,0,0.2,0.1,0.3,0.1
						c0.1,0.1,0.3,0.1,0.5,0.2c0.2,0.1,0.4,0.1,0.7,0.1c0.3,0,0.5,0.1,0.8,0.1c0.1,0,0.3,0,0.5,0c0.2,0,0.4-0.1,0.5-0.1
						c0.2-0.1,0.3-0.2,0.4-0.3c0.1-0.1,0.2-0.2,0.2-0.4c0-0.1,0-0.2-0.1-0.3c0-0.1-0.1-0.1-0.3-0.2c-0.2-0.1-0.5-0.1-0.8-0.2
						c-0.3,0-0.6,0-1-0.1c-0.3,0-0.7,0-1-0.1c-0.3,0-0.7-0.1-1-0.1c-0.3-0.1-0.6-0.2-0.8-0.3c-0.2-0.1-0.5-0.3-0.6-0.6
						c-0.1-0.2-0.2-0.4-0.2-0.6c0-0.2,0.1-0.5,0.3-0.8c0.2-0.3,0.5-0.5,0.9-0.7c-0.4-0.3-0.6-0.7-0.8-1.1c-0.2-0.4-0.3-0.9-0.3-1.4
						c0-0.5,0.1-0.9,0.3-1.4c0.2-0.4,0.4-0.8,0.7-1.1c0.3-0.3,0.7-0.6,1.1-0.8c0.4-0.2,0.9-0.3,1.4-0.3c0.4,0,0.7,0.1,1.1,0.2
						c0.3,0.1,0.7,0.3,1,0.5c0.1-0.1,0.3-0.1,0.5-0.2c0.2-0.1,0.4-0.1,0.7-0.1c0.2,0,0.4,0,0.6,0.1c0.2,0,0.5,0.1,0.8,0.2
						L124.9,73.2z M118.6,75.3c0,0.2,0.1,0.5,0.1,0.7c0.1,0.2,0.2,0.4,0.4,0.6c0.2,0.2,0.4,0.3,0.6,0.4c0.2,0.1,0.5,0.1,0.7,0.1
						c0.2,0,0.5-0.1,0.7-0.1c0.2-0.1,0.4-0.2,0.6-0.4c0.2-0.2,0.3-0.3,0.4-0.6c0.1-0.2,0.1-0.4,0.1-0.7c0-0.3,0-0.5-0.1-0.7
						c-0.1-0.2-0.2-0.4-0.4-0.6c-0.2-0.2-0.4-0.3-0.6-0.4c-0.2-0.1-0.5-0.1-0.7-0.1c-0.3,0-0.5,0.1-0.7,0.1
						c-0.2,0.1-0.4,0.2-0.6,0.4c-0.2,0.2-0.3,0.4-0.4,0.6C118.7,74.9,118.6,75.1,118.6,75.3z"/>
					<path id="XMLID_570_" class="st1" d="M141.5,74.3V76h-5.2v5.3h-1.8V68.6h7.9v1.8h-6.1v3.9H141.5z"/>
					<path id="XMLID_567_" class="st1" d="M145.5,69.6c0-0.2,0-0.3,0.1-0.5c0.1-0.1,0.1-0.3,0.3-0.4c0.1-0.1,0.2-0.2,0.4-0.3
						c0.1-0.1,0.3-0.1,0.5-0.1c0.2,0,0.3,0,0.5,0.1c0.1,0.1,0.3,0.2,0.4,0.3c0.1,0.1,0.2,0.2,0.3,0.4c0.1,0.1,0.1,0.3,0.1,0.5
						c0,0.2,0,0.3-0.1,0.5c-0.1,0.1-0.1,0.3-0.3,0.4c-0.1,0.1-0.2,0.2-0.4,0.3c-0.2,0.1-0.3,0.1-0.5,0.1c-0.2,0-0.3,0-0.5-0.1
						c-0.1-0.1-0.3-0.1-0.4-0.3c-0.1-0.1-0.2-0.2-0.3-0.4C145.5,70,145.5,69.8,145.5,69.6z M147.5,72v9.4h-1.8V72H147.5z"/>
					<path id="XMLID_565_" class="st1" d="M153,72c0.1,0.1,0.1,0.1,0.1,0.2c0,0.1,0.1,0.1,0.1,0.2c0,0.1,0,0.2,0,0.3v0.4
						c0.1-0.2,0.3-0.4,0.4-0.5c0.2-0.2,0.4-0.3,0.6-0.4c0.2-0.1,0.5-0.2,0.8-0.2c0.3-0.1,0.6-0.1,0.8-0.1c0.5,0,1,0.1,1.4,0.3
						c0.4,0.2,0.8,0.5,1.1,0.8c0.3,0.4,0.5,0.8,0.7,1.3c0.2,0.5,0.3,1.1,0.3,1.8v5.3h-1.8V76c0-0.8-0.1-1.4-0.4-1.8
						c-0.3-0.4-0.7-0.7-1.3-0.7c-0.4,0-0.7,0-1,0.1c-0.3,0.1-0.6,0.2-0.8,0.3c-0.3,0.1-0.5,0.3-0.6,0.5c-0.2,0.2-0.2,0.4-0.3,0.6
						v6.3h-1.8V72H153z"/>
					<path id="XMLID_562_" class="st1" d="M163.2,73.4c0.1-0.1,0.1-0.2,0.2-0.3c0.1-0.1,0.2-0.2,0.3-0.3c0.1-0.1,0.2-0.2,0.4-0.3
						c0.3-0.2,0.7-0.4,1.1-0.5c0.4-0.1,0.9-0.2,1.4-0.2c0.5,0,1,0.1,1.3,0.2c0.4,0.1,0.7,0.3,1,0.5c0.3,0.2,0.5,0.5,0.7,0.8
						c0.2,0.3,0.3,0.6,0.4,1c0.1,0.4,0.2,0.7,0.2,1.1c0,0.4,0.1,0.8,0.1,1.2v4.7h-1.4c-0.1-0.1-0.1-0.2-0.2-0.3
						c0-0.1-0.1-0.3-0.1-0.4v-0.2c-0.2,0.2-0.4,0.3-0.6,0.5c-0.2,0.1-0.5,0.3-0.7,0.3c-0.3,0.1-0.5,0.2-0.8,0.2
						c-0.3,0.1-0.5,0.1-0.7,0.1c-0.5,0-0.9-0.1-1.3-0.2c-0.4-0.1-0.7-0.3-1-0.6c-0.3-0.3-0.5-0.5-0.6-0.9c-0.2-0.4-0.2-0.7-0.2-1.2
						c0-0.5,0.1-0.9,0.3-1.3c0.2-0.4,0.4-0.7,0.8-1c0.4-0.3,0.8-0.5,1.3-0.6c0.5-0.1,1.2-0.2,1.9-0.2c0.2,0,0.4,0,0.6,0
						c0.2,0,0.4,0,0.5,0c0.2,0,0.3,0,0.4,0c0.1,0,0.2,0,0.2,0c0-0.4-0.1-0.8-0.2-1.1c-0.1-0.3-0.2-0.5-0.4-0.7
						c-0.2-0.2-0.4-0.3-0.6-0.3c-0.2-0.1-0.5-0.1-0.7-0.1c-0.3,0-0.5,0-0.7,0.1c-0.2,0.1-0.3,0.1-0.4,0.2c-0.1,0.1-0.3,0.1-0.4,0.2
						c-0.1,0.1-0.3,0.1-0.5,0.1c-0.2,0-0.3,0-0.4-0.1c-0.1-0.1-0.3-0.1-0.4-0.2L163.2,73.4z M165.7,79.8c0.2,0,0.4,0,0.7-0.1
						c0.2,0,0.5-0.1,0.7-0.2c0.2-0.1,0.5-0.2,0.7-0.3c0.2-0.1,0.5-0.2,0.7-0.4v-1.6c0,0-0.1,0-0.2,0c-0.1,0-0.2,0-0.4,0
						c-0.1,0-0.3,0-0.5,0c-0.2,0-0.4,0-0.6,0c-0.4,0-0.7,0-1,0.1c-0.3,0.1-0.6,0.1-0.8,0.2c-0.2,0.1-0.4,0.2-0.5,0.4
						c-0.1,0.2-0.2,0.4-0.2,0.6c0,0.2,0,0.4,0.1,0.5c0.1,0.1,0.2,0.3,0.3,0.3c0.1,0.1,0.3,0.1,0.5,0.2
						C165.3,79.8,165.5,79.8,165.7,79.8z"/>
					<path id="XMLID_560_" class="st1" d="M175.2,72c0.1,0.1,0.1,0.1,0.1,0.2c0,0.1,0.1,0.1,0.1,0.2c0,0.1,0.1,0.2,0.1,0.3v0.4
						c0.1-0.2,0.3-0.4,0.4-0.5c0.2-0.2,0.4-0.3,0.6-0.4c0.2-0.1,0.5-0.2,0.8-0.2c0.3-0.1,0.6-0.1,0.8-0.1c0.5,0,1,0.1,1.4,0.3
						c0.4,0.2,0.8,0.5,1.1,0.8c0.3,0.4,0.5,0.8,0.7,1.3c0.2,0.5,0.3,1.1,0.3,1.8v5.3h-1.8V76c0-0.8-0.1-1.4-0.4-1.8
						c-0.3-0.4-0.7-0.7-1.3-0.7c-0.4,0-0.7,0-1,0.1c-0.3,0.1-0.6,0.2-0.8,0.3c-0.2,0.1-0.4,0.3-0.6,0.5c-0.2,0.2-0.2,0.4-0.3,0.6
						v6.3h-1.8V72H175.2z"/>
					<path id="XMLID_558_" class="st1" d="M189.4,73.6c-0.4,0-0.8,0.1-1.2,0.2c-0.4,0.2-0.7,0.4-1,0.7c-0.3,0.3-0.5,0.6-0.7,1
						c-0.2,0.4-0.2,0.8-0.2,1.2c0,0.4,0.1,0.8,0.2,1.2c0.2,0.4,0.4,0.7,0.7,1c0.3,0.3,0.6,0.5,1,0.7c0.4,0.2,0.8,0.2,1.2,0.2
						c0.3,0,0.5,0,0.8-0.1c0.3-0.1,0.5-0.2,0.7-0.3c0.2-0.1,0.5-0.2,0.7-0.2c0.2,0,0.4,0,0.5,0.1c0.2,0.1,0.3,0.2,0.4,0.3l0.3,0.3
						c-0.4,0.5-1,0.8-1.6,1.1c-0.6,0.3-1.2,0.4-2,0.4c-0.7,0-1.3-0.1-1.9-0.4c-0.6-0.3-1.1-0.6-1.5-1c-0.4-0.4-0.8-0.9-1-1.5
						c-0.3-0.6-0.4-1.2-0.4-1.9c0-0.7,0.1-1.3,0.4-1.9c0.3-0.6,0.6-1.1,1-1.5c0.4-0.4,1-0.8,1.5-1c0.6-0.3,1.2-0.4,1.9-0.4
						c0.7,0,1.4,0.1,2,0.4c0.6,0.3,1.1,0.7,1.6,1.1l-0.3,0.3c-0.1,0.1-0.3,0.3-0.5,0.3c-0.2,0.1-0.3,0.1-0.6,0.1
						c-0.2,0-0.5-0.1-0.7-0.2c-0.2-0.1-0.5-0.2-0.7-0.3C189.9,73.6,189.7,73.6,189.4,73.6z"/>
					<path id="XMLID_555_" class="st1" d="M204.2,75.9c0,0.2,0,0.4-0.1,0.6c-0.1,0.2-0.2,0.3-0.3,0.4c-0.1,0.1-0.3,0.2-0.4,0.3
						c-0.2,0.1-0.3,0.1-0.4,0.1h-6.5c0,0.4,0.2,0.7,0.4,1c0.2,0.3,0.4,0.6,0.7,0.8c0.3,0.2,0.6,0.4,0.9,0.5c0.3,0.1,0.7,0.2,1.1,0.2
						c0.3,0,0.5,0,0.8-0.1c0.3-0.1,0.5-0.2,0.7-0.3c0.1-0.1,0.2-0.1,0.3-0.1c0.1,0,0.2,0,0.4,0c0.2,0,0.4,0,0.5,0.1
						c0.2,0.1,0.3,0.2,0.4,0.3l0.3,0.3c-0.4,0.5-1,0.8-1.6,1.1c-0.6,0.3-1.2,0.4-2,0.4c-0.7,0-1.3-0.1-1.9-0.4
						c-0.6-0.3-1.1-0.6-1.5-1c-0.4-0.4-0.8-0.9-1-1.5c-0.3-0.6-0.4-1.2-0.4-1.9c0-0.7,0.1-1.3,0.4-1.9c0.3-0.6,0.6-1.1,1-1.5
						c0.4-0.4,0.9-0.8,1.5-1c0.6-0.3,1.2-0.4,1.9-0.4c0.6,0,1.1,0.1,1.6,0.3c0.5,0.2,1,0.4,1.4,0.8c0.4,0.3,0.8,0.7,1.1,1.1
						c0.3,0.4,0.5,0.9,0.6,1.4c0,0.1,0,0.1,0,0.2C204.2,75.7,204.2,75.8,204.2,75.9z M197.2,75.5h5.2c-0.1-0.3-0.3-0.5-0.5-0.8
						c-0.2-0.2-0.4-0.4-0.7-0.6c-0.2-0.2-0.5-0.3-0.8-0.4c-0.3-0.1-0.6-0.1-0.9-0.1c-0.4,0-0.7,0.1-1,0.2c-0.3,0.1-0.6,0.3-0.9,0.5
						c-0.3,0.2-0.5,0.4-0.7,0.7c-0.2,0.3-0.3,0.6-0.4,0.9c0-0.1,0.1-0.1,0.2-0.2C196.9,75.5,197,75.5,197.2,75.5z"/>
					<path id="XMLID_552_" class="st1" d="M216.2,81.3h-1.8V68.6h4.6c0.6,0,1.1,0.1,1.6,0.3c0.5,0.2,0.9,0.5,1.3,0.9
						c0.4,0.4,0.7,0.8,0.9,1.3c0.2,0.5,0.3,1,0.3,1.6c0,0.6-0.1,1.1-0.3,1.6c-0.2,0.5-0.5,0.9-0.9,1.3c-0.4,0.4-0.8,0.6-1.3,0.9
						c-0.5,0.2-1,0.3-1.6,0.3h-2.8V81.3z M219,74.8c0.3,0,0.6-0.1,0.9-0.2c0.3-0.1,0.5-0.3,0.7-0.5c0.2-0.2,0.4-0.4,0.5-0.7
						c0.1-0.3,0.2-0.6,0.2-0.9c0-0.3-0.1-0.6-0.2-0.9c-0.1-0.3-0.3-0.5-0.5-0.7c-0.2-0.2-0.4-0.4-0.7-0.5c-0.3-0.1-0.6-0.2-0.9-0.2
						h-2.8v4.5H219z"/>
					<path id="XMLID_550_" class="st1" d="M224.4,72h1c0.3,0,0.5,0.1,0.8,0.2c0.2,0.2,0.4,0.3,0.5,0.6l2.5,5.7
						c0,0.1,0.1,0.2,0.1,0.4c0,0.1,0,0.3,0.1,0.4c0-0.3,0.1-0.6,0.2-0.8l2.5-5.7c0.1-0.3,0.3-0.5,0.5-0.6c0.2-0.2,0.5-0.2,0.8-0.2h1
						l-4.1,9.4h-1.7L224.4,72z"/>
					<path id="XMLID_548_" class="st1" d="M238.8,79c0,0.1,0,0.2,0,0.3c0,0.1,0.1,0.2,0.1,0.3c0.1,0.1,0.1,0.1,0.2,0.2
						c0.1,0.1,0.2,0.1,0.3,0.1l0.2,0c0.3-0.1,0.5-0.1,0.7-0.1c0.2,0,0.5,0.1,0.6,0.2c0.2,0.1,0.3,0.3,0.5,0.5l0.2,0.3
						c-0.1,0.1-0.2,0.2-0.4,0.3c-0.2,0.1-0.4,0.2-0.6,0.3c-0.2,0.1-0.4,0.1-0.6,0.2c-0.2,0.1-0.4,0.1-0.6,0.1c-0.4,0-0.7-0.1-1-0.2
						c-0.3-0.1-0.6-0.3-0.8-0.5c-0.2-0.2-0.4-0.5-0.5-0.8c-0.1-0.3-0.2-0.6-0.2-1v-5.3h-1.6v-1c0-0.5,0.5-0.7,1.4-0.7h0.2v-1.9
						c0-0.2,0-0.4,0.1-0.5c0-0.2,0.1-0.3,0.1-0.4c0.1-0.1,0.1-0.3,0.2-0.4h1.3V72h2.6v1.7h-2.6V79z"/>
					<path id="XMLID_546_" class="st1" d="M251.3,81.3V68.6h1.8v11h5.5v1.8H251.3z"/>
					<path id="XMLID_544_" class="st1" d="M263.7,79c0,0.1,0,0.2,0,0.3c0,0.1,0.1,0.2,0.1,0.3c0.1,0.1,0.1,0.1,0.2,0.2
						c0.1,0.1,0.2,0.1,0.3,0.1l0.2,0c0.3-0.1,0.5-0.1,0.7-0.1c0.2,0,0.5,0.1,0.6,0.2c0.2,0.1,0.3,0.3,0.5,0.5l0.2,0.3
						c-0.1,0.1-0.3,0.2-0.4,0.3c-0.2,0.1-0.4,0.2-0.6,0.3c-0.2,0.1-0.4,0.1-0.6,0.2c-0.2,0.1-0.4,0.1-0.6,0.1c-0.4,0-0.7-0.1-1-0.2
						c-0.3-0.1-0.5-0.3-0.8-0.5c-0.2-0.2-0.4-0.5-0.5-0.8c-0.1-0.3-0.2-0.6-0.2-1v-5.3h-1.6v-1c0-0.5,0.5-0.7,1.4-0.7h0.2v-1.9
						c0-0.2,0-0.4,0.1-0.5c0.1-0.2,0.1-0.3,0.2-0.4c0.1-0.1,0.1-0.3,0.2-0.4h1.3V72h2.6v1.7h-2.6V79z"/>
					<path id="XMLID_541_" class="st1" d="M275.6,81.3c-0.1-0.1-0.1-0.1-0.1-0.2c0-0.1-0.1-0.1-0.1-0.2c0-0.1,0-0.2,0-0.3v-0.1
						c-0.2,0.2-0.4,0.3-0.6,0.5c-0.2,0.1-0.4,0.2-0.6,0.3c-0.2,0.1-0.4,0.1-0.6,0.2c-0.2,0-0.4,0-0.6,0c-0.7,0-1.3-0.1-1.8-0.4
						c-0.6-0.3-1.1-0.6-1.5-1c-0.4-0.4-0.7-0.9-1-1.5c-0.2-0.6-0.4-1.2-0.4-1.9c0-0.7,0.1-1.3,0.4-1.9c0.2-0.6,0.6-1.1,1-1.5
						c0.4-0.4,0.9-0.8,1.5-1c0.6-0.3,1.2-0.4,1.8-0.4c0.2,0,0.4,0,0.6,0c0.2,0,0.4,0.1,0.6,0.2c0.2,0.1,0.4,0.2,0.6,0.3
						c0.2,0.1,0.4,0.3,0.6,0.5v-4.2h1.8v12.8H275.6z M272.9,73.6c-0.4,0-0.8,0.1-1.2,0.2c-0.4,0.2-0.7,0.4-0.9,0.7
						c-0.3,0.3-0.5,0.6-0.6,1c-0.1,0.4-0.2,0.8-0.2,1.2c0,0.4,0.1,0.8,0.2,1.2c0.1,0.4,0.4,0.7,0.6,1c0.3,0.3,0.6,0.5,0.9,0.7
						c0.4,0.2,0.7,0.3,1.2,0.3c0.5,0,0.9-0.1,1.3-0.3c0.4-0.2,0.8-0.4,1.1-0.7v-4.1c-0.3-0.3-0.7-0.6-1.1-0.7
						C273.8,73.7,273.4,73.6,272.9,73.6z"/>
				</g>
			</g>
		</g>
		<g id="XMLID_9_">
			<g id="XMLID_15_">
				<path id="XMLID_21_" class="st2" d="M206.5,29.4c0,16.2-13.2,29.4-29.4,29.4c-16.2,0-29.4-13.2-29.4-29.4
					c0-16.2,13.2-29.4,29.4-29.4C193.3,0,206.5,13.2,206.5,29.4z"/>
				<g id="XMLID_16_">
					<g id="XMLID_18_">
						<path id="XMLID_19_" class="st3" d="M201.6,29.3c-4.3-0.5-7.6-1.4-10.4-1.5c-1.1,0-1.9,0.2-2.7,1.1c-2.6,2.6-5.1,5.3-7.8,7.7
							c-0.7,0.6-3.7,1.7-6.1,2.5c-3.6,1.2-4.2,1.6-6.8,1c-2.6-0.6-5.7-1.7-9.5-2.4c-0.4-0.1-0.8-0.3-1.3-0.4c0-2.2,0.4-4.6,0.3-6.8
							c0-3,0.3-3.2-1.9-2.6c-1.4,0.4-3.6,0.9-6.2,1.5c8.3-7.9,17.9-17.1,26.1-24.9C183.5,12.1,193.2,21.3,201.6,29.3z"/>
					</g>
					<path id="XMLID_17_" class="st3" d="M188.8,41c-1.5,2.2-3.3,4-6.1,4.5c-2.3,0.5-4.6,1-7,1.5c-1.3,0.2-2.7,0.3-4-0.2
						c-1.5-0.6-2.2-1.6-2.3-3.2c0-0.3-0.1-0.5-0.4-0.5c-2.9-0.8-5.7-2-8.7-2.8c-1.2-0.3-2.3-0.4-3.5,0.2c-1.2,0.6-2.1,2.4-0.7,3.7
						c0.7,0.6,1.4,1,2.3,1.4c3.1,1.3,6.3,2.5,9.4,3.7c3.6,1.4,7.1,2.8,10.7,4c2.4,0.8,4.5,0.4,6.5-1.1c2.9-2.2,5.6-4.5,8.4-6.8
						c0.4-0.3,0.8-0.6,1.3-1c1-0.7,1.5-0.7,2.5-0.3c0.2,0.1,0.7,0.4,1.1,0.5c0.3,0.1,0.8,0.4,1,0c1.1-2.4,4.5-11.2,4.7-11.9
						c0.1-0.3,0-0.4-0.3-0.5c-2.9-0.6-5.9-1.3-8.8-1.8c-1.5-0.3-2.9-0.3-4.3,0.2c-1.2,0.4-2.2,1.1-3.2,2c-1.5,1.4-2.9,3-4.2,4.5
						c-1,1.1-2.3,1.9-3.7,2.7c-1.4,0.8-3,1.2-4.5,1.5c-1,0.2-1.9,0.4-2.8,0.9c-0.7,0.3-1.1,0.8-1,1.5c0.1,0.8,0.5,1.3,1.2,1.5
						c0.8,0.3,1.7,0.3,2.5,0.1c2.8-0.6,5.7-1.2,8.5-1.8c1.7-0.4,3.2-1.2,4.6-2.1C188.3,41.2,188.5,41.1,188.8,41z"/>
				</g>
			</g>
			<g id="XMLID_10_">
				<rect id="XMLID_14_" x="171.8" y="22.1" class="st2" width="3.3" height="3.3"/>
				<rect id="XMLID_13_" x="175.8" y="22.1" class="st2" width="3.3" height="3.3"/>
				<rect id="XMLID_12_" x="171.8" y="26" class="st2" width="3.3" height="3.3"/>
				<rect id="XMLID_11_" x="175.8" y="26" class="st2" width="3.3" height="3.3"/>
			</g>
		</g>
	</g>
	<g id="XMLID_3_">
		<path id="XMLID_6_" class="st4" d="M286.6,3.6c0,0.1,0,0.2,0,0.3c0,0.1,0,0.1,0,0.2c0,0.1,0,0.1-0.1,0.1c0,0-0.1,0-0.1,0h-1.9v6
			c0,0,0,0.1,0,0.1c0,0-0.1,0.1-0.1,0.1c-0.1,0-0.1,0-0.2,0c-0.1,0-0.2,0-0.4,0c-0.1,0-0.3,0-0.4,0c-0.1,0-0.2,0-0.2,0
			c-0.1,0-0.1,0-0.1-0.1c0,0,0-0.1,0-0.1v-6h-1.9c0,0-0.1,0-0.1,0c0,0,0-0.1-0.1-0.1c0,0,0-0.1,0-0.2c0-0.1,0-0.2,0-0.3
			c0-0.1,0-0.2,0-0.3c0-0.1,0-0.1,0-0.2c0,0,0-0.1,0.1-0.1c0,0,0.1,0,0.1,0h5.2c0,0,0.1,0,0.1,0c0,0,0,0.1,0.1,0.1c0,0,0,0.1,0,0.2
			C286.6,3.4,286.6,3.5,286.6,3.6z"/>
		<path id="XMLID_4_" class="st4" d="M296.1,10.2C296.1,10.2,296.1,10.3,296.1,10.2c-0.1,0.1-0.1,0.2-0.1,0.2c-0.1,0-0.1,0-0.2,0
			c-0.1,0-0.2,0-0.4,0c-0.1,0-0.3,0-0.3,0c-0.1,0-0.2,0-0.2,0c-0.1,0-0.1,0-0.1-0.1c0,0,0-0.1,0-0.1v-6h0l-2.1,6
			c0,0.1,0,0.1-0.1,0.1c0,0-0.1,0.1-0.1,0.1c-0.1,0-0.1,0-0.2,0c-0.1,0-0.2,0-0.3,0c-0.1,0-0.2,0-0.3,0c-0.1,0-0.2,0-0.2,0
			c-0.1,0-0.1,0-0.1-0.1c0,0-0.1-0.1-0.1-0.1l-2.1-6h0v6c0,0,0,0.1,0,0.1c0,0-0.1,0.1-0.1,0.1c-0.1,0-0.1,0-0.2,0
			c-0.1,0-0.2,0-0.3,0c-0.1,0-0.3,0-0.3,0c-0.1,0-0.2,0-0.2,0c-0.1,0-0.1,0-0.1-0.1c0,0,0-0.1,0-0.1V3.6c0-0.2,0.1-0.3,0.2-0.4
			c0.1-0.1,0.2-0.2,0.4-0.2h1c0.2,0,0.3,0,0.5,0c0.1,0,0.2,0.1,0.3,0.1c0.1,0.1,0.2,0.2,0.2,0.3c0.1,0.1,0.1,0.2,0.2,0.4l1.6,4.4h0
			l1.7-4.4c0.1-0.2,0.1-0.3,0.2-0.4c0.1-0.1,0.1-0.2,0.2-0.3c0.1-0.1,0.2-0.1,0.3-0.1c0.1,0,0.2,0,0.4,0h1c0.1,0,0.2,0,0.3,0
			c0.1,0,0.1,0.1,0.2,0.1c0,0.1,0.1,0.1,0.1,0.2c0,0.1,0,0.2,0,0.3V10.2z"/>
	</g>
</g>
</svg>
